<svg version="1.1" xmlns="http://www.w3.org/2000/svg" viewBox="0 0 1465.7142857142862 732.8571428571429" width="2931.4285714285725" height="1465.7142857142858">
  <!-- svg-source:excalidraw -->
  
  <defs>
    <style class="style-fonts">
      @font-face {
        font-family: "Virgil";
        src: url("https://excalidraw.com/Virgil.woff2");
      }
      @font-face {
        font-family: "Cascadia";
        src: url("https://excalidraw.com/Cascadia.woff2");
      }
    </style>
  </defs>
  <g stroke-linecap="round" transform="translate(72.214285714286 208.42857142857156) rotate(0 103.5 203)"><path d="M32 0 M32 0 C69.96 0.32, 105.33 1.61, 175 0 M32 0 C81.41 0.4, 128.79 1.27, 175 0 M175 0 C196.61 1.65, 208.12 10.39, 207 32 M175 0 C195.66 0.05, 209.09 11.48, 207 32 M207 32 C206.26 145.22, 208.13 258.05, 207 374 M207 32 C204.46 146.57, 205.73 260.58, 207 374 M207 374 C208.26 395.41, 198.12 405.37, 175 406 M207 374 C205.66 394.62, 195.21 404.75, 175 406 M175 406 C135.55 403.51, 93.7 406.31, 32 406 M175 406 C123.24 408.04, 69.65 407.82, 32 406 M32 406 C11.9 406.54, 1.08 396.8, 0 374 M32 406 C10 404.74, 2.18 393.36, 0 374 M0 374 C1.01 268.71, 0 164.1, 0 32 M0 374 C2.85 265.46, 2.6 158.13, 0 32 M0 32 C1.27 10.27, 9.13 1.61, 32 0 M0 32 C-1.47 11.28, 10.39 0.44, 32 0" stroke="#000000" stroke-width="1" fill="none"></path></g><g stroke-linecap="round" transform="translate(151.214285714286 225.42857142857156) rotate(0 23.5 4.5)"><path d="M-0.2 2.48 C-0.2 2.48, -0.2 2.48, -0.2 2.48 M-0.2 2.48 C-0.2 2.48, -0.2 2.48, -0.2 2.48 M0.85 7.37 C2.27 6.31, 3.87 4.34, 4.79 2.84 M0.85 7.37 C2.05 6.21, 3.19 4.71, 4.79 2.84 M3.87 9.99 C5.62 9.38, 6.47 7.43, 10.43 2.44 M3.87 9.99 C5.51 7.56, 7.55 5.15, 10.43 2.44 M8.86 10.35 C11.73 7.34, 13.36 6.56, 15.42 2.8 M8.86 10.35 C11.57 7.95, 13.35 5.07, 15.42 2.8 M14.5 9.96 C17.59 6.9, 18.68 5.41, 21.06 2.41 M14.5 9.96 C15.76 8.32, 17.32 6.32, 21.06 2.41 M19.49 10.32 C21.59 8.58, 23.48 5.5, 26.05 2.77 M19.49 10.32 C21.31 8.14, 23.62 5.28, 26.05 2.77 M25.13 9.92 C27.46 8.13, 29.45 5.74, 31.69 2.37 M25.13 9.92 C27.41 7.86, 29.2 4.62, 31.69 2.37 M30.12 10.28 C31.73 7.54, 33.63 6.04, 36.68 2.73 M30.12 10.28 C31.85 8.65, 33.19 6.93, 36.68 2.73 M35.76 9.89 C37.88 6.19, 40 3.42, 42.32 2.34 M35.76 9.89 C37.35 7.73, 39.72 5.85, 42.32 2.34 M40.75 10.25 C42.87 7.86, 46.17 4.85, 47.97 1.95 M40.75 10.25 C43.15 8.06, 45.34 5.49, 47.97 1.95" stroke="#ced4da" stroke-width="0.5" fill="none"></path><path d="M2.25 0 M2.25 0 C17.45 1.08, 28.71 0.75, 44.75 0 M2.25 0 C11.65 -0.82, 22.4 0.67, 44.75 0 M44.75 0 C46.84 0.62, 46.23 1.79, 47 2.25 M44.75 0 C46.38 -0.49, 48.22 0.69, 47 2.25 M47 2.25 C46.63 3.33, 47.38 5.28, 47 6.75 M47 2.25 C46.89 3.22, 47.02 4.15, 47 6.75 M47 6.75 C46.57 10.23, 47.28 10.74, 44.75 9 M47 6.75 C44.83 9.84, 44.99 9.01, 44.75 9 M44.75 9 C34.7 8.8, 21.01 9.94, 2.25 9 M44.75 9 C28.59 9.04, 10.88 9.47, 2.25 9 M2.25 9 C1.07 10.15, -1.24 6.93, 0 6.75 M2.25 9 C1.37 7.54, 1.24 7.93, 0 6.75 M0 6.75 C-0.01 5.02, 0.39 3.55, 0 2.25 M0 6.75 C-0.16 5.82, -0.12 4.6, 0 2.25 M0 2.25 C-1.33 -0.49, -0.79 0.7, 2.25 0 M0 2.25 C1.51 3.03, 1.98 -1.94, 2.25 0" stroke="#000000" stroke-width="1" fill="none"></path></g><g stroke-linecap="round" transform="translate(83.214285714286 280.42857142857156) rotate(0 92 22.5)"><path d="M11.25 0 M11.25 0 C53.24 1.48, 92.23 0.88, 172.75 0 M11.25 0 C50.64 0.33, 90.32 -0.64, 172.75 0 M172.75 0 C179.67 0.04, 185.82 4.46, 184 11.25 M172.75 0 C180.96 0.19, 185.49 2.14, 184 11.25 M184 11.25 C184.85 16.43, 182.68 23.09, 184 33.75 M184 11.25 C184.85 18.67, 185.11 25.7, 184 33.75 M184 33.75 C182.83 40.63, 179.27 43.91, 172.75 45 M184 33.75 C183.75 39.99, 179.03 47.14, 172.75 45 M172.75 45 C139.58 45.57, 105.47 47.04, 11.25 45 M172.75 45 C111.51 46.25, 49.57 46.72, 11.25 45 M11.25 45 C3.17 43.91, 1.9 39.53, 0 33.75 M11.25 45 C3.93 43.83, -0.65 40.98, 0 33.75 M0 33.75 C0.52 24.93, -0.27 21.88, 0 11.25 M0 33.75 C0.52 28.36, -0.89 24.17, 0 11.25 M0 11.25 C-1.28 4.28, 3.51 0.38, 11.25 0 M0 11.25 C-1.71 4.8, 4.51 1.27, 11.25 0" stroke="#000000" stroke-width="1" fill="none"></path></g><g transform="translate(142.2042873927528 290.42857142857156) rotate(0 33.0099983215332 12.5)"><text x="33.0099983215332" y="0" font-family="Virgil, Segoe UI Emoji" font-size="20px" fill="#000000" text-anchor="middle" style="white-space: pre;" direction="ltr" dominant-baseline="text-before-edge">order 1</text></g><g stroke-linecap="round" transform="translate(96.214285714286 286.42857142857156) rotate(0 17 17)"><path d="M10.91 2.03 C13.91 0.35, 18.18 -0.7, 21.55 0.37 C24.91 1.43, 28.99 5.28, 31.11 8.4 C33.23 11.52, 34.63 15.51, 34.26 19.08 C33.89 22.66, 31.69 27.39, 28.89 29.87 C26.1 32.36, 21.02 33.89, 17.49 34.01 C13.96 34.12, 10.49 32.85, 7.72 30.56 C4.95 28.28, 1.97 23.93, 0.85 20.27 C-0.27 16.61, -0.85 11.67, 0.98 8.6 C2.81 5.53, 9.86 3.05, 11.84 1.85 C13.83 0.65, 12.83 1.16, 12.88 1.42 M13.59 -0.6 C17.09 -1.42, 22.47 -0.65, 25.58 1.6 C28.69 3.84, 31.27 9.1, 32.27 12.85 C33.27 16.6, 32.61 20.75, 31.58 24.09 C30.54 27.42, 29.06 31.04, 26.06 32.85 C23.05 34.67, 17.11 35.61, 13.55 34.96 C9.99 34.31, 7.1 31.84, 4.68 28.95 C2.26 26.07, -1.04 21.41, -0.97 17.63 C-0.91 13.85, 2.4 8.98, 5.08 6.26 C7.77 3.54, 13.66 2.4, 15.14 1.31 C16.61 0.22, 13.8 -0.15, 13.95 -0.27" stroke="#000000" stroke-width="1" fill="none"></path></g><g stroke-linecap="round" transform="translate(82.214285714286 337.05357142857156) rotate(0 92 22.5)"><path d="M11.25 0 M11.25 0 C69.99 1.63, 129.15 2.47, 172.75 0 M11.25 0 C58.37 0.32, 103.98 0.05, 172.75 0 M172.75 0 C181.54 -1.4, 184.1 5.18, 184 11.25 M172.75 0 C179.81 0.79, 182.06 2.05, 184 11.25 M184 11.25 C183.48 17.13, 184.14 22.27, 184 33.75 M184 11.25 C183.38 16.75, 183.76 22.78, 184 33.75 M184 33.75 C182.94 43.12, 178.52 46.34, 172.75 45 M184 33.75 C185.23 42.77, 179.91 46.94, 172.75 45 M172.75 45 C116 45.18, 57.36 45.03, 11.25 45 M172.75 45 C113.38 43.26, 52.19 43.61, 11.25 45 M11.25 45 C3.18 44.77, 0.08 39.51, 0 33.75 M11.25 45 C5.09 45.37, -2.28 40.71, 0 33.75 M0 33.75 C1.02 26.25, -0.24 14.67, 0 11.25 M0 33.75 C0.02 25.38, -0.6 17.09, 0 11.25 M0 11.25 C0.66 4.85, 3.98 0.55, 11.25 0 M0 11.25 C1.28 2.55, 4.52 1.75, 11.25 0" stroke="#000000" stroke-width="1" fill="none"></path></g><g transform="translate(136.7942875453407 347.05357142857156) rotate(0 37.41999816894531 12.5)"><text x="37.41999816894531" y="0" font-family="Virgil, Segoe UI Emoji" font-size="20px" fill="#000000" text-anchor="middle" style="white-space: pre;" direction="ltr" dominant-baseline="text-before-edge">order 2</text></g><g stroke-linecap="round" transform="translate(95.214285714286 344.05357142857156) rotate(0 17 17)"><path d="M14.88 0.49 C18.29 -0.27, 23.07 1.31, 26 3.17 C28.92 5.04, 31.18 8.38, 32.43 11.7 C33.69 15.01, 34.68 19.84, 33.51 23.08 C32.35 26.32, 28.87 29.51, 25.42 31.12 C21.97 32.72, 16.41 33.14, 12.83 32.7 C9.25 32.27, 6.14 31.1, 3.95 28.51 C1.76 25.92, -0.35 20.8, -0.29 17.14 C-0.22 13.49, 1.49 9.55, 4.33 6.6 C7.17 3.64, 14.27 0.51, 16.76 -0.58 C19.25 -1.67, 19.3 -0.31, 19.26 0.05 M11.09 1.64 C14.63 0.43, 21.29 0.95, 24.79 2.49 C28.29 4.03, 30.5 7.56, 32.09 10.88 C33.69 14.21, 35.38 18.96, 34.36 22.43 C33.34 25.9, 28.9 29.72, 25.95 31.71 C23 33.7, 20 34.6, 16.66 34.36 C13.33 34.12, 8.78 33.02, 5.94 30.28 C3.11 27.53, -0.09 21.9, -0.35 17.88 C-0.61 13.86, 2.23 9.14, 4.37 6.14 C6.52 3.14, 11.23 0.76, 12.51 -0.13 C13.79 -1.02, 11.99 0.61, 12.05 0.79" stroke="#000000" stroke-width="1" fill="none"></path></g><g stroke-linecap="round" transform="translate(82.214285714286 395.67857142857156) rotate(0 92 22.5)"><path d="M11.25 0 M11.25 0 C68.77 2.29, 126.92 1.09, 172.75 0 M11.25 0 C61.07 1.84, 110.6 1.48, 172.75 0 M172.75 0 C178.57 -1.48, 182.1 4.31, 184 11.25 M172.75 0 C182.45 -0.67, 185.45 3.84, 184 11.25 M184 11.25 C183.31 19.03, 182.84 28.55, 184 33.75 M184 11.25 C183.02 17.43, 184.42 22.94, 184 33.75 M184 33.75 C183.71 42.94, 181.43 46.66, 172.75 45 M184 33.75 C182.5 42.65, 181.67 45.62, 172.75 45 M172.75 45 C114.5 46.43, 56.73 44.69, 11.25 45 M172.75 45 C132.59 43.94, 92.93 44.97, 11.25 45 M11.25 45 C1.77 44.53, 1.8 39.86, 0 33.75 M11.25 45 C4.96 46, 1.46 40.8, 0 33.75 M0 33.75 C0.35 28.49, 0.2 22.22, 0 11.25 M0 33.75 C0.04 26.25, 0.48 17.67, 0 11.25 M0 11.25 C0.67 5.28, 3.02 -1.58, 11.25 0 M0 11.25 C-0.17 1.68, 5.49 -0.87, 11.25 0" stroke="#000000" stroke-width="1" fill="none"></path></g><g transform="translate(137.10428510393444 405.67857142857156) rotate(0 37.11000061035156 12.5)"><text x="37.11000061035156" y="0" font-family="Virgil, Segoe UI Emoji" font-size="20px" fill="#000000" text-anchor="middle" style="white-space: pre;" direction="ltr" dominant-baseline="text-before-edge">order 3</text></g><g stroke-linecap="round" transform="translate(95.214285714286 401.67857142857156) rotate(0 17 17)"><path d="M23.12 0.69 C26.64 1.44, 30.19 4.3, 31.84 7.28 C33.5 10.26, 33.62 14.67, 33.07 18.57 C32.52 22.48, 31.19 28.02, 28.54 30.7 C25.88 33.37, 20.82 34.54, 17.14 34.63 C13.46 34.71, 9.3 33.66, 6.45 31.19 C3.59 28.72, 0.81 23.6, 0.02 19.8 C-0.76 16, 0.05 11.51, 1.76 8.39 C3.46 5.27, 6.45 2.22, 10.24 1.07 C14.02 -0.09, 21.46 1.15, 24.44 1.46 C27.41 1.77, 28.01 2.49, 28.08 2.92 M23.4 2.16 C26.62 3.02, 28.7 6.16, 30.58 9.14 C32.47 12.12, 34.99 16.41, 34.72 20.04 C34.45 23.67, 31.95 28.73, 28.98 30.92 C26.01 33.11, 20.42 33.51, 16.88 33.18 C13.35 32.85, 10.48 31.22, 7.74 28.94 C5 26.66, 1.44 22.89, 0.44 19.5 C-0.57 16.11, -0.06 11.88, 1.69 8.6 C3.45 5.33, 7.33 1.07, 10.94 -0.17 C14.56 -1.41, 21.72 0.98, 23.39 1.16 C25.05 1.34, 20.93 0.84, 20.92 0.89" stroke="#000000" stroke-width="1" fill="none"></path></g><g stroke-linecap="round" transform="translate(77.214285714286 452.30357142857156) rotate(0 92 22.5)"><path d="M11.25 0 M11.25 0 C63.28 -0.94, 119.54 -1.42, 172.75 0 M11.25 0 C64.32 1.48, 120.24 0.9, 172.75 0 M172.75 0 C181.51 0.08, 185.79 3.12, 184 11.25 M172.75 0 C178.91 -0.71, 182.87 2.5, 184 11.25 M184 11.25 C185.74 16.02, 185.22 25.32, 184 33.75 M184 11.25 C184.56 20.32, 183.32 28.33, 184 33.75 M184 33.75 C185.23 41.79, 181.33 46.47, 172.75 45 M184 33.75 C183.33 39.99, 182.43 43.03, 172.75 45 M172.75 45 C122.78 44.62, 71.52 45.7, 11.25 45 M172.75 45 C122.61 43.93, 71.2 45.05, 11.25 45 M11.25 45 C5.02 44.61, -1.54 42.86, 0 33.75 M11.25 45 C2.28 45.61, -0.28 41.69, 0 33.75 M0 33.75 C1 28.9, 0.45 24.71, 0 11.25 M0 33.75 C-0.44 27.38, -0.15 21.7, 0 11.25 M0 11.25 C1.51 3, 2.77 -0.78, 11.25 0 M0 11.25 C0.51 1.99, 2.18 1.73, 11.25 0" stroke="#000000" stroke-width="1" fill="none"></path></g><g transform="translate(132.51428495134655 462.30357142857156) rotate(0 36.70000076293945 12.5)"><text x="36.70000076293945" y="0" font-family="Virgil, Segoe UI Emoji" font-size="20px" fill="#000000" text-anchor="middle" style="white-space: pre;" direction="ltr" dominant-baseline="text-before-edge">order 4</text></g><g stroke-linecap="round" transform="translate(90.214285714286 458.30357142857156) rotate(0 17 17)"><path d="M10.33 2.44 C13.48 1.09, 17.9 0.29, 21.36 1.28 C24.82 2.27, 29.07 5.54, 31.11 8.36 C33.15 11.17, 34.03 14.77, 33.59 18.16 C33.16 21.55, 31.18 26.1, 28.53 28.71 C25.87 31.33, 21.35 33.59, 17.68 33.85 C14.01 34.1, 9.19 32.5, 6.49 30.24 C3.78 27.98, 2.13 23.64, 1.45 20.28 C0.76 16.93, 0.4 13.43, 2.38 10.12 C4.35 6.8, 11 1.94, 13.31 0.42 C15.62 -1.1, 16.14 0.82, 16.24 1.01 M22.9 1.88 C26.04 2.51, 28.83 4.35, 30.89 7.03 C32.95 9.7, 35.66 14.29, 35.28 17.91 C34.9 21.53, 31.61 26.1, 28.62 28.75 C25.63 31.4, 20.99 33.73, 17.34 33.81 C13.69 33.88, 9.4 31.34, 6.73 29.2 C4.05 27.05, 2.33 24.34, 1.28 20.94 C0.23 17.55, -1.33 12.27, 0.42 8.82 C2.18 5.37, 8.08 1.5, 11.82 0.26 C15.56 -0.97, 21.02 1.34, 22.88 1.43 C24.73 1.52, 23.35 0.44, 22.94 0.81" stroke="#000000" stroke-width="1" fill="none"></path></g><g stroke-linecap="round" transform="translate(78.214285714286 510.92857142857156) rotate(0 92 22.5)"><path d="M11.25 0 M11.25 0 C55.16 -0.54, 102.6 3.28, 172.75 0 M11.25 0 C55.87 -0.38, 98.12 -0.37, 172.75 0 M172.75 0 C179.27 -1.09, 183.78 2.65, 184 11.25 M172.75 0 C179.03 2.14, 182.01 5.29, 184 11.25 M184 11.25 C185.84 20.38, 185.81 25.86, 184 33.75 M184 11.25 C184.68 20.1, 183.85 26.94, 184 33.75 M184 33.75 C185.9 39.53, 180.41 43.98, 172.75 45 M184 33.75 C183.35 40.98, 180.34 43, 172.75 45 M172.75 45 C114.45 45.2, 55.7 44.45, 11.25 45 M172.75 45 C116.54 45.48, 61.23 44.95, 11.25 45 M11.25 45 C3.51 45.38, -1.49 42.16, 0 33.75 M11.25 45 C4.51 46.27, 0.26 41.88, 0 33.75 M0 33.75 C1.64 25.02, -1.46 17.61, 0 11.25 M0 33.75 C-0.66 28.63, 0.05 23.54, 0 11.25 M0 11.25 C-1.36 5.25, 4.62 0.4, 11.25 0 M0 11.25 C0.42 4.05, 5.87 -1.56, 11.25 0" stroke="#000000" stroke-width="1" fill="none"></path></g><g transform="translate(133.73428617204968 520.9285714285716) rotate(0 36.47999954223633 12.5)"><text x="36.47999954223633" y="0" font-family="Virgil, Segoe UI Emoji" font-size="20px" fill="#000000" text-anchor="middle" style="white-space: pre;" direction="ltr" dominant-baseline="text-before-edge">order 5</text></g><g stroke-linecap="round" transform="translate(91.214285714286 516.9285714285716) rotate(0 17 17)"><path d="M21.96 0.26 C25.26 0.89, 29.23 4.35, 31.12 7.52 C33.01 10.69, 33.84 15.68, 33.29 19.28 C32.74 22.88, 30.27 26.81, 27.81 29.12 C25.34 31.43, 21.94 32.83, 18.5 33.13 C15.06 33.43, 10.1 33.04, 7.18 30.92 C4.27 28.79, 1.75 23.92, 1.03 20.36 C0.3 16.81, 1.1 12.88, 2.85 9.59 C4.59 6.29, 7.77 1.78, 11.49 0.58 C15.2 -0.62, 22.61 1.84, 25.16 2.38 C27.7 2.93, 26.85 3.73, 26.74 3.83 M12.53 -0.14 C15.5 -1.09, 20.28 -0.07, 23.58 1.34 C26.89 2.75, 30.59 4.98, 32.38 8.34 C34.18 11.69, 35.5 17.77, 34.34 21.45 C33.18 25.14, 28.3 28.55, 25.42 30.46 C22.54 32.37, 20.31 33.02, 17.06 32.91 C13.81 32.8, 8.58 32.23, 5.9 29.8 C3.23 27.38, 1.72 21.91, 1.04 18.38 C0.35 14.84, 0.08 11.5, 1.81 8.61 C3.55 5.72, 9.7 2.26, 11.45 1.03 C13.21 -0.2, 12.28 0.92, 12.33 1.24" stroke="#000000" stroke-width="1" fill="none"></path></g><g stroke-linecap="round" transform="translate(10 10) rotate(0 722.8571428571431 356.42857142857144)"><path d="M32 0 M32 0 C398.85 -3.53, 765.62 -3.53, 1413.71 0 M32 0 C544.55 -2.38, 1057.68 -2.45, 1413.71 0 M1413.71 0 C1436.42 1.59, 1447.1 8.73, 1445.71 32 M1413.71 0 C1436.72 -1.45, 1445.2 11.27, 1445.71 32 M1445.71 32 C1444.88 259.84, 1443.91 487.36, 1445.71 680.86 M1445.71 32 C1448.45 209.53, 1448.63 387.28, 1445.71 680.86 M1445.71 680.86 C1447.27 701.62, 1436.25 713.03, 1413.71 712.86 M1445.71 680.86 C1446.58 700.13, 1436.64 712.71, 1413.71 712.86 M1413.71 712.86 C940.35 710.89, 465.74 710.78, 32 712.86 M1413.71 712.86 C873.65 715.61, 333.4 715.41, 32 712.86 M32 712.86 C9.73 712.65, 1.26 701.3, 0 680.86 M32 712.86 C12.79 710.95, 0.32 701.3, 0 680.86 M0 680.86 C0.12 493.4, -0.08 304.36, 0 32 M0 680.86 C-0.53 442.79, -0.29 204.73, 0 32 M0 32 C1.08 12.2, 11.01 -0.54, 32 0 M0 32 C-1.33 11.62, 9.94 -1.51, 32 0" stroke="transparent" stroke-width="1" fill="none"></path></g></svg>