<svg width="800" height="400" viewBox="0 0 800 400" xmlns="http://www.w3.org/2000/svg"><mask id="satori_om-id"><rect x="0" y="0" width="800" height="400" fill="#fff"/></mask><rect x="0" y="0" width="800" height="400" fill="#0f172a"/><mask id="satori_om-id-0"><rect x="272" y="162" width="257" height="76" fill="#fff"/></mask><path fill="#f3f4f6" d="M297.3 188.2L307.3 188.2L295.4 222.1L284.9 222.1L273.1 188.2L283.0 188.2L290.0 212.4L290.3 212.4L297.3 188.2ZM321.5 222.1L312.1 222.1L312.1 188.2L321.5 188.2L321.5 222.1ZM316.8 183.9L316.8 183.9Q314.7 183.9 313.2 182.5Q311.7 181.1 311.7 179.1L311.7 179.1Q311.7 177.2 313.2 175.8Q314.7 174.4 316.8 174.4L316.8 174.4Q318.9 174.4 320.4 175.8Q321.8 177.2 321.8 179.1L321.8 179.1Q321.8 181.1 320.4 182.5Q318.9 183.9 316.8 183.9ZM338.3 202.5L338.3 202.5L338.3 222.1L328.9 222.1L328.9 188.2L337.9 188.2L337.9 194.2L338.3 194.2Q339.4 191.3 342.0 189.5Q344.7 187.8 348.4 187.8L348.4 187.8Q352.0 187.8 354.6 189.3Q357.2 190.9 358.7 193.7Q360.1 196.6 360.1 200.5L360.1 200.5L360.1 222.1L350.7 222.1L350.7 202.2Q350.8 199.1 349.1 197.3Q347.5 195.6 344.7 195.6L344.7 195.6Q342.8 195.6 341.4 196.4Q339.9 197.2 339.1 198.8Q338.3 200.3 338.3 202.5ZM395.6 197.9L395.6 197.9L387.0 198.4Q386.8 197.3 386.1 196.4Q385.4 195.5 384.2 195.0Q383.0 194.5 381.4 194.5L381.4 194.5Q379.2 194.5 377.7 195.4Q376.2 196.3 376.2 197.8L376.2 197.8Q376.2 199.0 377.2 199.8Q378.1 200.7 380.5 201.2L380.5 201.2L386.6 202.4Q391.6 203.4 394.0 205.7Q396.4 207.9 396.4 211.6L396.4 211.6Q396.4 214.9 394.4 217.4Q392.5 219.9 389.1 221.3Q385.7 222.7 381.3 222.7L381.3 222.7Q374.6 222.7 370.6 219.9Q366.7 217.1 366.0 212.3L366.0 212.3L375.2 211.8Q375.6 213.8 377.2 214.9Q378.8 216.0 381.4 216.0L381.4 216.0Q383.8 216.0 385.3 215.0Q386.8 214.0 386.9 212.5L386.9 212.5Q386.8 211.3 385.8 210.4Q384.7 209.6 382.5 209.2L382.5 209.2L376.7 208.0Q371.7 207.0 369.3 204.6Q366.9 202.1 366.9 198.3L366.9 198.3Q366.9 195.1 368.7 192.7Q370.4 190.4 373.7 189.1Q376.9 187.8 381.2 187.8L381.2 187.8Q387.6 187.8 391.3 190.5Q395.0 193.2 395.6 197.9ZM417.6 235.4L417.6 235.4Q413.0 235.4 409.7 234.2Q406.5 233.0 404.6 230.8Q402.7 228.7 402.1 226.0L402.1 226.0L410.8 224.9Q411.2 225.9 412.0 226.8Q412.9 227.6 414.3 228.2Q415.7 228.7 417.8 228.7L417.8 228.7Q420.8 228.7 422.8 227.2Q424.8 225.7 424.8 222.3L424.8 222.3L424.8 216.1L424.4 216.1Q423.8 217.5 422.6 218.7Q421.3 220.0 419.4 220.8Q417.5 221.6 414.8 221.6L414.8 221.6Q411.0 221.6 407.9 219.8Q404.7 218.0 402.9 214.4Q401.1 210.7 401.1 205.1L401.1 205.1Q401.1 199.3 402.9 195.5Q404.8 191.6 407.9 189.7Q411.0 187.8 414.8 187.8L414.8 187.8Q417.6 187.8 419.5 188.8Q421.4 189.7 422.6 191.1Q423.8 192.6 424.4 193.9L424.4 193.9L424.8 193.9L424.8 188.2L434.1 188.2L434.1 222.4Q434.1 226.7 432.0 229.6Q429.9 232.5 426.1 234.0Q422.4 235.4 417.6 235.4ZM417.8 214.5L417.8 214.5Q420.0 214.5 421.6 213.4Q423.2 212.3 424.0 210.1Q424.9 208.0 424.9 205.0L424.9 205.0Q424.9 202.1 424.0 199.9Q423.2 197.7 421.6 196.5Q420.0 195.3 417.8 195.3L417.8 195.3Q415.4 195.3 413.9 196.5Q412.3 197.8 411.5 200.0Q410.6 202.2 410.6 205.0L410.6 205.0Q410.6 208.0 411.5 210.1Q412.3 212.2 413.9 213.4Q415.4 214.5 417.8 214.5ZM447.1 222.6L447.1 222.6Q444.9 222.6 443.3 221.1Q441.8 219.5 441.8 217.4L441.8 217.4Q441.8 215.2 443.3 213.7Q444.9 212.1 447.1 212.1L447.1 212.1Q449.2 212.1 450.8 213.7Q452.3 215.2 452.3 217.4L452.3 217.4Q452.3 218.8 451.6 220.0Q450.9 221.2 449.7 221.9Q448.5 222.6 447.1 222.6ZM475.3 222.7L475.3 222.7Q470.1 222.7 466.4 220.5Q462.6 218.3 460.7 214.4Q458.7 210.4 458.7 205.3L458.7 205.3Q458.7 200.1 460.7 196.2Q462.7 192.2 466.4 190.0Q470.1 187.8 475.3 187.8L475.3 187.8Q479.7 187.8 483.0 189.4Q486.3 191.0 488.3 193.9Q490.2 196.8 490.4 200.8L490.4 200.8L481.6 200.8Q481.2 198.2 479.6 196.7Q478.0 195.1 475.4 195.1L475.4 195.1Q473.2 195.1 471.6 196.3Q470.0 197.5 469.1 199.7Q468.2 202.0 468.2 205.2L468.2 205.2Q468.2 208.4 469.1 210.7Q470.0 212.9 471.6 214.1Q473.2 215.3 475.4 215.3L475.4 215.3Q477.0 215.3 478.3 214.6Q479.6 214.0 480.4 212.7Q481.3 211.5 481.6 209.7L481.6 209.7L490.4 209.7Q490.2 213.5 488.3 216.5Q486.4 219.4 483.1 221.1Q479.8 222.7 475.3 222.7ZM506.1 222.7L506.1 222.7Q502.8 222.7 500.3 221.6Q497.8 220.4 496.3 218.2Q494.9 216.0 494.9 212.6L494.9 212.6Q494.9 209.8 495.9 207.9Q496.9 206.0 498.7 204.8Q500.5 203.6 502.8 203.0Q505.1 202.4 507.6 202.2L507.6 202.2Q510.5 201.9 512.3 201.6Q514.1 201.3 514.9 200.8Q515.8 200.2 515.8 199.2L515.8 199.2L515.8 199.0Q515.8 196.9 514.4 195.8Q513.1 194.7 510.7 194.7L510.7 194.7Q508.2 194.7 506.7 195.8Q505.2 196.9 504.7 198.5L504.7 198.5L496.0 197.8Q496.7 194.8 498.6 192.5Q500.6 190.2 503.7 189.0Q506.7 187.8 510.8 187.8L510.8 187.8Q513.6 187.8 516.2 188.5Q518.8 189.1 520.8 190.5Q522.8 191.9 524.0 194.1Q525.1 196.2 525.1 199.3L525.1 199.3L525.1 222.1L516.2 222.1L516.2 217.4L516.0 217.4Q515.2 219.0 513.8 220.2Q512.4 221.4 510.5 222.0Q508.6 222.7 506.1 222.7ZM508.8 216.2L508.8 216.2Q510.8 216.2 512.4 215.4Q514.0 214.6 514.9 213.2Q515.8 211.8 515.8 210.0L515.8 210.0L515.8 206.4Q515.4 206.7 514.6 206.9Q513.9 207.1 512.9 207.3Q512.0 207.5 511.0 207.7Q510.1 207.8 509.3 207.9L509.3 207.9Q507.6 208.1 506.4 208.7Q505.2 209.2 504.5 210.1Q503.8 211.0 503.8 212.3L503.8 212.3Q503.8 214.2 505.2 215.2Q506.6 216.2 508.8 216.2Z "/></svg>