<svg version="1.1" xmlns="http://www.w3.org/2000/svg" viewBox="0 0 1112.857142857143 822.8571428571429" width="2225.714285714286" height="1645.7142857142858">
  <!-- svg-source:excalidraw -->
  
  <defs>
    <style class="style-fonts">
      @font-face {
        font-family: "Virgil";
        src: url("https://excalidraw.com/Virgil.woff2");
      }
      @font-face {
        font-family: "Cascadia";
        src: url("https://excalidraw.com/Cascadia.woff2");
      }
    </style>
  </defs>
  <g stroke-linecap="round" transform="translate(124.00000000000023 173.785714285714) rotate(0 103.5 203)"><path d="M32 0 M32 0 C79.21 -2.6, 124.04 -0.12, 175 0 M32 0 C83.48 -0.24, 136.92 -0.71, 175 0 M175 0 C197.5 0.96, 205.63 11.47, 207 32 M175 0 C195.3 -0.28, 207.29 10.74, 207 32 M207 32 C204.96 162.07, 205.79 290.72, 207 374 M207 32 C206.14 154.95, 205.69 276.78, 207 374 M207 374 C206.39 397.16, 196.77 404.69, 175 406 M207 374 C206.31 394.29, 196.88 407.87, 175 406 M175 406 C122.67 405.83, 67.33 406.37, 32 406 M175 406 C121.33 406.51, 66.18 405.67, 32 406 M32 406 C11.7 407.28, 0.64 393.75, 0 374 M32 406 C11.05 404.36, -1.45 395, 0 374 M0 374 C1.26 237.77, 0.7 104.79, 0 32 M0 374 C-2.47 265.44, -2.06 157.43, 0 32 M0 32 C-0.58 9.76, 9.57 -0.46, 32 0 M0 32 C1.38 12.02, 12.2 -1.8, 32 0" stroke="#000000" stroke-width="1" fill="none"></path></g><g stroke-linecap="round" transform="translate(203.00000000000023 190.785714285714) rotate(0 23.5 4.5)"><path d="M-0.2 2.48 C-0.2 2.48, -0.2 2.48, -0.2 2.48 M-0.2 2.48 C-0.2 2.48, -0.2 2.48, -0.2 2.48 M0.85 7.37 C2.15 5.27, 3.75 3.65, 4.79 2.84 M0.85 7.37 C2.56 5.59, 3.65 3.89, 4.79 2.84 M3.87 9.99 C4.46 8.59, 7.27 6.45, 10.43 2.44 M3.87 9.99 C6.01 7.51, 8.14 5.17, 10.43 2.44 M8.86 10.35 C11.29 8.19, 13.3 5.9, 15.42 2.8 M8.86 10.35 C11.97 7.23, 14.25 4.19, 15.42 2.8 M14.5 9.96 C16.42 6.89, 19.16 5.24, 21.06 2.41 M14.5 9.96 C16.74 8.01, 18.8 4.88, 21.06 2.41 M19.49 10.32 C22.33 7.05, 24.16 4.92, 26.05 2.77 M19.49 10.32 C21.74 8.02, 24.01 4.9, 26.05 2.77 M25.13 9.92 C27.36 7.48, 28.47 4.71, 31.69 2.37 M25.13 9.92 C27.27 7.83, 29.5 5.58, 31.69 2.37 M30.12 10.28 C31.97 9.38, 33.38 6.98, 36.68 2.73 M30.12 10.28 C32.06 7.2, 34.67 4.83, 36.68 2.73 M35.76 9.89 C38.31 7.62, 39.5 5.65, 42.32 2.34 M35.76 9.89 C37.11 7.35, 39.47 5.49, 42.32 2.34 M40.75 10.25 C41.8 7.48, 46.07 5.63, 47.97 1.95 M40.75 10.25 C43.29 8, 45.62 4.66, 47.97 1.95" stroke="#ced4da" stroke-width="0.5" fill="none"></path><path d="M2.25 0 M2.25 0 C18.57 0.44, 32.47 -0.93, 44.75 0 M2.25 0 C13.19 1.23, 26.22 0.29, 44.75 0 M44.75 0 C47.71 -0.1, 46.07 1.78, 47 2.25 M44.75 0 C47.83 -0.71, 47.41 1.54, 47 2.25 M47 2.25 C46.63 2.89, 46.97 4.47, 47 6.75 M47 2.25 C47.14 3.33, 47.19 4.57, 47 6.75 M47 6.75 C48.01 6.91, 47.42 9.13, 44.75 9 M47 6.75 C48.95 9.42, 45.02 10.52, 44.75 9 M44.75 9 C28.44 9.28, 13.37 7.01, 2.25 9 M44.75 9 C30.74 9.52, 15.8 9.24, 2.25 9 M2.25 9 C-0.6 10.44, 0.37 9.99, 0 6.75 M2.25 9 C2.09 7.63, 0.89 9.32, 0 6.75 M0 6.75 C0.24 5.87, 0.33 5.03, 0 2.25 M0 6.75 C-0.15 5.34, -0.14 3.85, 0 2.25 M0 2.25 C-0.58 -0.61, 2.22 -0.1, 2.25 0 M0 2.25 C0.03 2.81, -0.09 0.91, 2.25 0" stroke="#000000" stroke-width="1" fill="none"></path></g><g stroke-linecap="round" transform="translate(135.00000000000023 245.785714285714) rotate(0 92 22.5)"><path d="M11.25 0 M11.25 0 C57.55 -3.27, 104.16 -1.25, 172.75 0 M11.25 0 C54.68 -1.98, 96.09 -0.11, 172.75 0 M172.75 0 C181.19 0.23, 183.82 4.03, 184 11.25 M172.75 0 C181.45 1.46, 185.54 2.04, 184 11.25 M184 11.25 C185.56 19.85, 184.62 26.34, 184 33.75 M184 11.25 C183.34 18.34, 184.82 23.52, 184 33.75 M184 33.75 C185.46 41.15, 179.32 46.03, 172.75 45 M184 33.75 C185.58 40.54, 180.66 45.79, 172.75 45 M172.75 45 C132.64 44.42, 95.73 46.7, 11.25 45 M172.75 45 C127.82 43.85, 82.66 43.76, 11.25 45 M11.25 45 C4.76 43.66, 1.17 41.38, 0 33.75 M11.25 45 C5.7 46.17, -1.23 42.77, 0 33.75 M0 33.75 C-1.18 26.42, -1.11 16.13, 0 11.25 M0 33.75 C1.05 26.63, 1.05 18.45, 0 11.25 M0 11.25 C-1.35 5.19, 4.12 1.74, 11.25 0 M0 11.25 C1.34 2.38, 4.64 1.07, 11.25 0" stroke="#000000" stroke-width="1" fill="none"></path></g><g transform="translate(193.99000167846702 255.785714285714) rotate(0 33.0099983215332 12.5)"><text x="33.0099983215332" y="0" font-family="Virgil, Segoe UI Emoji" font-size="20px" fill="#000000" text-anchor="middle" style="white-space: pre;" direction="ltr" dominant-baseline="text-before-edge">order 1</text></g><g stroke-linecap="round" transform="translate(148.00000000000023 251.785714285714) rotate(0 17 17)"><path d="M15.48 0.93 C18.94 0.72, 24.73 1.58, 27.6 3.6 C30.47 5.62, 31.94 9.52, 32.7 13.06 C33.47 16.6, 33.57 21.62, 32.17 24.83 C30.76 28.05, 27.68 30.79, 24.25 32.34 C20.82 33.9, 15.29 35.31, 11.58 34.18 C7.87 33.04, 3.95 28.72, 2 25.52 C0.05 22.33, -0.59 18.45, -0.13 15.01 C0.33 11.56, 1.7 7.5, 4.77 4.86 C7.85 2.22, 16.07 -0.08, 18.32 -0.85 C20.58 -1.61, 18.58 -0.22, 18.32 0.26 M19.88 0.99 C23.59 1.23, 27.86 2.36, 30.03 5.1 C32.2 7.84, 32.58 13.78, 32.87 17.42 C33.16 21.06, 33.59 24.3, 31.75 26.93 C29.92 29.57, 25.48 32.61, 21.85 33.23 C18.22 33.86, 13.37 32.4, 9.98 30.66 C6.59 28.93, 3.11 25.79, 1.52 22.84 C-0.07 19.89, -0.76 16.25, 0.45 12.97 C1.65 9.69, 5.51 5.23, 8.74 3.17 C11.97 1.1, 17.97 1.19, 19.81 0.58 C21.66 -0.04, 19.7 -0.97, 19.82 -0.55" stroke="#000000" stroke-width="1" fill="none"></path></g><g stroke-linecap="round" transform="translate(134.00000000000023 302.410714285714) rotate(0 92 22.5)"><path d="M11.25 0 M11.25 0 C63.63 2.44, 120.13 0.47, 172.75 0 M11.25 0 C52.12 0.27, 94.04 0.19, 172.75 0 M172.75 0 C178.8 -1.48, 184.82 2.58, 184 11.25 M172.75 0 C181.68 -0.47, 182.74 3.46, 184 11.25 M184 11.25 C184.39 17.72, 185.51 25.44, 184 33.75 M184 11.25 C183.58 18.92, 184.61 26.09, 184 33.75 M184 33.75 C185.27 41.55, 178.96 44.69, 172.75 45 M184 33.75 C182.57 40.9, 180.01 46.9, 172.75 45 M172.75 45 C133.18 45.89, 94.42 43.17, 11.25 45 M172.75 45 C109.39 45.69, 45.59 45.22, 11.25 45 M11.25 45 C4.41 45.33, 0.46 41.94, 0 33.75 M11.25 45 C4.52 44.68, 0 42.48, 0 33.75 M0 33.75 C-0.12 24.14, -0.59 17.43, 0 11.25 M0 33.75 C-0.02 28.51, 0.77 24.76, 0 11.25 M0 11.25 C0.92 4.17, 5.2 -1.14, 11.25 0 M0 11.25 C-0.88 5.15, 4.19 -0.71, 11.25 0" stroke="#000000" stroke-width="1" fill="none"></path></g><g transform="translate(188.58000183105491 312.410714285714) rotate(0 37.41999816894531 12.5)"><text x="37.41999816894531" y="0" font-family="Virgil, Segoe UI Emoji" font-size="20px" fill="#000000" text-anchor="middle" style="white-space: pre;" direction="ltr" dominant-baseline="text-before-edge">order 2</text></g><g stroke-linecap="round" transform="translate(147.00000000000023 309.410714285714) rotate(0 17 17)"><path d="M11.11 0.7 C14.3 -0.69, 19.36 -1.06, 22.67 0.31 C25.99 1.68, 29.25 5.55, 30.99 8.93 C32.74 12.31, 33.7 17.17, 33.15 20.59 C32.61 24.02, 30.42 27.21, 27.71 29.49 C24.99 31.76, 20.49 34, 16.85 34.23 C13.21 34.46, 8.6 33.32, 5.87 30.87 C3.14 28.42, 0.94 23.29, 0.47 19.53 C0 15.77, 1.05 11.49, 3.06 8.31 C5.08 5.13, 10.72 1.79, 12.55 0.45 C14.39 -0.89, 13.91 -0.15, 14.1 0.26 M24.1 1.8 C26.94 3.18, 30.39 6.87, 31.87 10.5 C33.35 14.13, 34.1 20.08, 32.98 23.59 C31.85 27.1, 28.23 29.81, 25.11 31.54 C21.99 33.26, 17.56 34.34, 14.24 33.95 C10.92 33.56, 7.76 31.69, 5.2 29.17 C2.64 26.66, -0.78 22.67, -1.13 18.87 C-1.48 15.07, 0.68 9.29, 3.12 6.39 C5.56 3.49, 9.98 2.14, 13.51 1.48 C17.04 0.83, 22.33 2.29, 24.31 2.47 C26.29 2.66, 25.36 2.32, 25.41 2.59" stroke="#000000" stroke-width="1" fill="none"></path></g><g stroke-linecap="round" transform="translate(134.00000000000023 361.035714285714) rotate(0 92 22.5)"><path d="M11.25 0 M11.25 0 C57.18 1.76, 105.52 -1.34, 172.75 0 M11.25 0 C46.76 0.37, 81.25 -0.84, 172.75 0 M172.75 0 C181.67 0.68, 184.69 5.01, 184 11.25 M172.75 0 C178.92 -2.05, 185.86 5.1, 184 11.25 M184 11.25 C182.84 17.7, 182.54 25.73, 184 33.75 M184 11.25 C183.71 16.93, 184.55 22.7, 184 33.75 M184 33.75 C182.44 42.69, 179.59 45.65, 172.75 45 M184 33.75 C185.78 41.5, 179.13 42.93, 172.75 45 M172.75 45 C113.75 44.04, 53.41 45.2, 11.25 45 M172.75 45 C133.75 44.88, 96.03 44.38, 11.25 45 M11.25 45 C2 46.39, -0.8 39.73, 0 33.75 M11.25 45 C5.53 43.24, -1.68 43.33, 0 33.75 M0 33.75 C0.01 27.61, 1.34 23.55, 0 11.25 M0 33.75 C-0.78 26.15, 0.79 20.23, 0 11.25 M0 11.25 C-0.14 4.78, 3.68 0.01, 11.25 0 M0 11.25 C-1.35 1.83, 1.6 -1.46, 11.25 0" stroke="#000000" stroke-width="1" fill="none"></path></g><g transform="translate(188.88999938964866 371.035714285714) rotate(0 37.11000061035156 12.5)"><text x="37.11000061035156" y="0" font-family="Virgil, Segoe UI Emoji" font-size="20px" fill="#000000" text-anchor="middle" style="white-space: pre;" direction="ltr" dominant-baseline="text-before-edge">order 3</text></g><g stroke-linecap="round" transform="translate(147.00000000000023 367.035714285714) rotate(0 17 17)"><path d="M19.34 0.13 C22.68 0.28, 26.13 3.15, 28.62 5.8 C31.12 8.45, 33.81 12.61, 34.29 16.02 C34.76 19.44, 33.79 23.26, 31.47 26.3 C29.14 29.34, 23.89 33.17, 20.36 34.27 C16.82 35.37, 13.45 34.66, 10.26 32.92 C7.06 31.17, 2.89 27.36, 1.19 23.81 C-0.5 20.27, -0.84 15.25, 0.08 11.65 C1 8.04, 3.55 4.02, 6.69 2.18 C9.82 0.33, 16.49 0.9, 18.88 0.58 C21.28 0.26, 20.99 -0.04, 21.04 0.24 M18.5 0.61 C22.35 0.65, 28.09 3.17, 30.54 5.52 C33 7.86, 33.07 11.32, 33.24 14.69 C33.42 18.06, 33.78 22.57, 31.61 25.73 C29.44 28.89, 23.97 32.7, 20.22 33.64 C16.48 34.58, 12.19 33.18, 9.17 31.37 C6.14 29.55, 3.72 26.09, 2.07 22.74 C0.42 19.39, -1.42 14.42, -0.73 11.28 C-0.04 8.15, 3.09 5.71, 6.21 3.92 C9.33 2.12, 16.09 0.91, 18 0.51 C19.9 0.1, 17.61 1.47, 17.65 1.5" stroke="#000000" stroke-width="1" fill="none"></path></g><g stroke-linecap="round" transform="translate(129.00000000000023 417.660714285714) rotate(0 92 22.5)"><path d="M11.25 0 M11.25 0 C54.06 -0.39, 98.1 -1.24, 172.75 0 M11.25 0 C64.21 0.11, 115.95 -0.29, 172.75 0 M172.75 0 C178.33 1.53, 183.53 5.4, 184 11.25 M172.75 0 C180.56 0.81, 185.46 5.74, 184 11.25 M184 11.25 C185.18 14.6, 183.73 19.89, 184 33.75 M184 11.25 C183.93 19.4, 183.3 26.61, 184 33.75 M184 33.75 C185.72 42.81, 178.81 46.69, 172.75 45 M184 33.75 C186.15 39.96, 181.51 45.38, 172.75 45 M172.75 45 C107.85 46.02, 42.55 45.22, 11.25 45 M172.75 45 C109.43 46.97, 45.17 47.25, 11.25 45 M11.25 45 C5.46 45.08, -1.7 42.44, 0 33.75 M11.25 45 C4.83 46.47, -1.63 43.2, 0 33.75 M0 33.75 C0.61 26.65, -0.14 19.27, 0 11.25 M0 33.75 C0.78 25.58, -0.34 16.75, 0 11.25 M0 11.25 C1.4 4.91, 4.71 -1.27, 11.25 0 M0 11.25 C-2.03 4.14, 2.36 1.61, 11.25 0" stroke="#000000" stroke-width="1" fill="none"></path></g><g transform="translate(184.29999923706077 427.660714285714) rotate(0 36.70000076293945 12.5)"><text x="36.70000076293945" y="0" font-family="Virgil, Segoe UI Emoji" font-size="20px" fill="#000000" text-anchor="middle" style="white-space: pre;" direction="ltr" dominant-baseline="text-before-edge">order 4</text></g><g stroke-linecap="round" transform="translate(142.00000000000023 423.660714285714) rotate(0 17 17)"><path d="M17.77 0.26 C21.22 -0.23, 25.5 0.76, 28.29 3.02 C31.08 5.28, 33.8 10.05, 34.51 13.82 C35.22 17.59, 34.44 22.34, 32.54 25.64 C30.65 28.94, 26.58 32.5, 23.16 33.61 C19.75 34.72, 15.65 33.72, 12.05 32.3 C8.44 30.89, 3.41 28.32, 1.56 25.12 C-0.29 21.92, 0.19 16.78, 0.93 13.1 C1.67 9.42, 2.78 5.22, 6.02 3.05 C9.26 0.88, 17.6 0.38, 20.39 0.07 C23.18 -0.23, 22.92 1.02, 22.79 1.21 M9.54 2.51 C12.69 0.68, 19.87 -0.97, 23.65 -0.01 C27.43 0.94, 30.29 4.77, 32.23 8.23 C34.18 11.7, 35.94 17.28, 35.33 20.8 C34.71 24.31, 31.38 27.27, 28.54 29.31 C25.69 31.36, 21.9 32.65, 18.24 33.07 C14.59 33.49, 9.5 33.69, 6.58 31.83 C3.67 29.97, 1.39 25.55, 0.75 21.88 C0.11 18.22, 1.09 13.06, 2.76 9.82 C4.42 6.58, 9.2 3.82, 10.75 2.46 C12.29 1.09, 12.16 1.41, 12.04 1.61" stroke="#000000" stroke-width="1" fill="none"></path></g><g stroke-linecap="round" transform="translate(130.00000000000023 476.285714285714) rotate(0 92 22.5)"><path d="M11.25 0 M11.25 0 C46.4 -2, 82.83 1.28, 172.75 0 M11.25 0 C51.41 -1.09, 92.89 -1.49, 172.75 0 M172.75 0 C179.53 -1.78, 183.28 4.72, 184 11.25 M172.75 0 C180.53 1.37, 183.62 3.09, 184 11.25 M184 11.25 C184.86 15.52, 182.33 22.88, 184 33.75 M184 11.25 C184.32 16.58, 183.99 23.65, 184 33.75 M184 33.75 C184.96 40.44, 181.21 43.82, 172.75 45 M184 33.75 C182.97 42.92, 178.7 45.82, 172.75 45 M172.75 45 C139.05 44.81, 103.88 46.75, 11.25 45 M172.75 45 C120.18 45.49, 66 45.05, 11.25 45 M11.25 45 C3.65 46.49, -1.38 39.88, 0 33.75 M11.25 45 C3.39 44.52, 0.06 39.1, 0 33.75 M0 33.75 C1.47 23.16, 1.19 15.86, 0 11.25 M0 33.75 C0.79 24.78, 0.38 17.12, 0 11.25 M0 11.25 C1 5.47, 4.53 -0.5, 11.25 0 M0 11.25 C-0.69 4.76, 5.43 0.97, 11.25 0" stroke="#000000" stroke-width="1" fill="none"></path></g><g transform="translate(185.5200004577639 486.285714285714) rotate(0 36.47999954223633 12.5)"><text x="36.47999954223633" y="0" font-family="Virgil, Segoe UI Emoji" font-size="20px" fill="#000000" text-anchor="middle" style="white-space: pre;" direction="ltr" dominant-baseline="text-before-edge">order 5</text></g><g stroke-linecap="round" transform="translate(143.00000000000023 482.285714285714) rotate(0 17 17)"><path d="M11.3 1.51 C14.3 0.09, 19.29 -0.48, 22.53 0.59 C25.76 1.66, 28.76 4.74, 30.72 7.95 C32.68 11.16, 34.6 16.23, 34.26 19.86 C33.93 23.48, 31.58 27.47, 28.69 29.71 C25.8 31.95, 20.57 33.13, 16.93 33.29 C13.3 33.44, 9.57 32.89, 6.86 30.63 C4.14 28.37, 1.59 23.28, 0.66 19.73 C-0.27 16.19, -0.71 12.47, 1.26 9.36 C3.24 6.25, 10.46 2.51, 12.52 1.07 C14.59 -0.37, 13.72 0.56, 13.66 0.72 M15.88 -0.79 C19.07 -1.09, 23.04 1.7, 25.78 3.96 C28.52 6.22, 31.41 9.42, 32.31 12.79 C33.22 16.17, 32.37 20.92, 31.21 24.19 C30.04 27.46, 28.51 31, 25.34 32.43 C22.16 33.85, 15.71 33.59, 12.14 32.76 C8.57 31.93, 5.79 30.13, 3.93 27.46 C2.06 24.79, 0.71 20.57, 0.94 16.75 C1.17 12.93, 3.14 7.56, 5.3 4.56 C7.45 1.56, 12.23 -0.74, 13.86 -1.24 C15.5 -1.74, 15.05 1.22, 15.12 1.56" stroke="#000000" stroke-width="1" fill="none"></path></g><g stroke-linecap="round" transform="translate(722.0000000000002 137.785714285714) rotate(0 124 68)"><path d="M32 0 M32 0 C96.32 2.87, 161.62 3.56, 216 0 M32 0 C84.01 2.1, 137.2 1, 216 0 M216 0 C236.93 -1.6, 248.45 9.25, 248 32 M216 0 C238.01 -1.84, 245.97 12.67, 248 32 M248 32 C248.28 52.69, 246.68 75.72, 248 104 M248 32 C247.23 52, 247.56 72.87, 248 104 M248 104 C246.67 126.07, 238.58 134.98, 216 136 M248 104 C248.44 126.48, 239.26 136.17, 216 136 M216 136 C172 135.92, 124.26 135.58, 32 136 M216 136 C177.38 135.28, 138.79 135.78, 32 136 M32 136 C9.01 134.95, -0.42 126.58, 0 104 M32 136 C10.11 134.71, -1.07 127.3, 0 104 M0 104 C-0.73 79.72, 1.89 53.05, 0 32 M0 104 C-0.67 84.15, 0.03 64.95, 0 32 M0 32 C-1.25 10.26, 10.46 -0.18, 32 0 M0 32 C-0.17 8.4, 11.96 1.93, 32 0" stroke="#000000" stroke-width="1" fill="none"></path></g><g transform="translate(754.0000000000002 191.785714285714) rotate(0 85.4800033569336 12.5)"><text x="0" y="0" font-family="Virgil, Segoe UI Emoji" font-size="20px" fill="#000000" text-anchor="start" style="white-space: pre;" direction="ltr" dominant-baseline="text-before-edge">Backend service 1</text></g><g mask="url(#mask-dqvqcvQ5LlMYNIcFuflr_)" stroke-linecap="round"><g transform="translate(372.0000000000002 281.785714285714) rotate(0 157.9250607585907 -29.101627586409464)"><path d="M0.57 -0.18 C53.31 -9.65, 263.64 -48.52, 316.45 -58.02 M-0.6 -1.32 C51.94 -10.49, 262.3 -46.86, 315.21 -56.5" stroke="#000000" stroke-width="1" fill="none"></path></g><g transform="translate(372.0000000000002 281.785714285714) rotate(0 157.9250607585907 -29.101627586409464)"><path d="M288.93 -42.4 C297.15 -45.41, 306.34 -52.07, 314.67 -55.21 M290.21 -40.83 C298.47 -46.18, 305.33 -51.58, 315.04 -56.8" stroke="#000000" stroke-width="1" fill="none"></path></g><g transform="translate(372.0000000000002 281.785714285714) rotate(0 157.9250607585907 -29.101627586409464)"><path d="M285.36 -62.61 C294.45 -59.57, 304.71 -60.15, 314.67 -55.21 M286.63 -61.03 C296.15 -59.78, 304.19 -58.54, 315.04 -56.8" stroke="#000000" stroke-width="1" fill="none"></path></g></g><mask id="mask-dqvqcvQ5LlMYNIcFuflr_"><rect x="0" y="0" fill="#fff" width="789.0000000000002" height="439.785714285714"></rect><rect x="467.1000022888186" y="240.285714285714" fill="#000" width="126.79999542236328" height="25" opacity="1"></rect></mask><g transform="translate(467.1000022888186 240.285714285714) rotate(0 62.82505846977233 12.398372413590536)"><text x="63.39999771118164" y="0" font-family="Virgil, Segoe UI Emoji" font-size="20px" fill="#000000" text-anchor="middle" style="white-space: pre;" direction="ltr" dominant-baseline="text-before-edge">GET /orders</text></g><g stroke-linecap="round" transform="translate(721.0000000000002 305.785714285714) rotate(0 124 68)"><path d="M32 0 M32 0 C79.53 -0.1, 121.97 -0.9, 216 0 M32 0 C92.65 -1.72, 155.95 -1.55, 216 0 M216 0 C239.13 -1.48, 248.24 9.8, 248 32 M216 0 C235.55 0.97, 247.73 10.12, 248 32 M248 32 C249.39 50.52, 249.34 69.31, 248 104 M248 32 C247.44 54.37, 248.11 77.23, 248 104 M248 104 C249.73 123.6, 238.88 135.39, 216 136 M248 104 C248.67 125.92, 239.09 136.93, 216 136 M216 136 C161.94 134.41, 106.97 136.13, 32 136 M216 136 C179.59 134.05, 141.38 135.06, 32 136 M32 136 C12.41 136.38, 0.52 124.74, 0 104 M32 136 C8.4 135.43, -0.78 126.62, 0 104 M0 104 C1.73 74.69, 1.96 50.61, 0 32 M0 104 C0.04 83.2, -0.78 64.76, 0 32 M0 32 C-1.6 10.9, 11.18 -0.81, 32 0 M0 32 C0.64 12.75, 9.6 1.98, 32 0" stroke="#000000" stroke-width="1" fill="none"></path></g><g transform="translate(753.0000000000002 359.785714285714) rotate(0 89.89000701904297 12.5)"><text x="0" y="0" font-family="Virgil, Segoe UI Emoji" font-size="20px" fill="#000000" text-anchor="start" style="white-space: pre;" direction="ltr" dominant-baseline="text-before-edge">Backend service 2</text></g><g stroke-linecap="round" transform="translate(718.0000000000002 461.785714285714) rotate(0 124 68)"><path d="M32 0 M32 0 C91.59 -2.85, 154.29 0.26, 216 0 M32 0 C104.19 2.25, 177.89 2.27, 216 0 M216 0 C237.08 0.06, 246.24 9.13, 248 32 M216 0 C237.21 1.4, 249.2 11.71, 248 32 M248 32 C246.26 61.68, 246.82 88.24, 248 104 M248 32 C248.02 48.9, 248.56 65.54, 248 104 M248 104 C247.88 123.74, 235.54 135.36, 216 136 M248 104 C247.5 126.55, 235.4 135.65, 216 136 M216 136 C161.18 135.11, 108.97 136.7, 32 136 M216 136 C147.53 137.81, 79.01 138.03, 32 136 M32 136 C12.13 135.11, -0.39 124.92, 0 104 M32 136 C10.96 136.94, 0.99 123.68, 0 104 M0 104 C0.24 84.99, 1.08 69.09, 0 32 M0 104 C-0.49 78.14, 0.72 49.97, 0 32 M0 32 C1.28 8.67, 9.85 1.44, 32 0 M0 32 C0.4 9.01, 11.07 -1.53, 32 0" stroke="#000000" stroke-width="1" fill="none"></path></g><g transform="translate(750.0000000000002 515.785714285714) rotate(0 89.58000183105469 12.5)"><text x="0" y="0" font-family="Virgil, Segoe UI Emoji" font-size="20px" fill="#000000" text-anchor="start" style="white-space: pre;" direction="ltr" dominant-baseline="text-before-edge">Backend service 3</text></g><g mask="url(#mask-gFV4tKR1phl3mJwmOeOGg)" stroke-linecap="round"><g transform="translate(394.0000000000002 351.785714285714) rotate(0 147.99578078956347 7.190190845867619)"><path d="M-0.27 0.27 C48.69 2.69, 244.79 12.76, 294.05 15.01 M1.79 -0.63 C51.1 1.43, 247.45 10.81, 296.26 13.42" stroke="#000000" stroke-width="1" fill="none"></path></g><g transform="translate(394.0000000000002 351.785714285714) rotate(0 147.99578078956347 7.190190845867619)"><path d="M268.05 20.67 C278.5 19.9, 285.74 15.75, 297.56 15.17 M267.32 22.01 C275.39 19.09, 280.94 18.45, 295.32 12.74" stroke="#000000" stroke-width="1" fill="none"></path></g><g transform="translate(394.0000000000002 351.785714285714) rotate(0 147.99578078956347 7.190190845867619)"><path d="M269.07 0.17 C279.29 6.03, 286.19 8.5, 297.56 15.17 M268.35 1.52 C276.04 3.58, 281.34 7.91, 295.32 12.74" stroke="#000000" stroke-width="1" fill="none"></path></g></g><mask id="mask-gFV4tKR1phl3mJwmOeOGg"><rect x="0" y="0" fill="#fff" width="789.0000000000002" height="465.785714285714"></rect><rect x="465.7500000000002" y="346.285714285714" fill="#000" width="151.5" height="25" opacity="1"></rect></mask><g transform="translate(465.7500000000002 346.285714285714) rotate(0 76.24578078956347 12.690190845867619)"><text x="75.75" y="0" font-family="Virgil, Segoe UI Emoji" font-size="20px" fill="#000000" text-anchor="middle" style="white-space: pre;" direction="ltr" dominant-baseline="text-before-edge">GET v2/orders</text></g><g mask="url(#mask-KNElNNuWPh8KqtHnc8tYT)" stroke-linecap="round"><g transform="translate(379.0000000000002 459.785714285714) rotate(0 150.33513442374766 31.82022210821509)"><path d="M0.75 0.97 C50.66 11.63, 249.08 52.93, 298.87 63.2 M-0.32 0.44 C50 10.86, 251.2 51.68, 300.99 61.71" stroke="#000000" stroke-width="1" fill="none"></path></g><g transform="translate(379.0000000000002 459.785714285714) rotate(0 150.33513442374766 31.82022210821509)"><path d="M272.95 64.29 C280.76 63.99, 287.17 64.91, 299.89 61.65 M271.07 66.24 C278.58 65.94, 285.44 64.46, 300.51 62.38" stroke="#000000" stroke-width="1" fill="none"></path></g><g transform="translate(379.0000000000002 459.785714285714) rotate(0 150.33513442374766 31.82022210821509)"><path d="M277.02 44.18 C283.69 48.93, 289.09 54.86, 299.89 61.65 M275.14 46.13 C281.65 50.45, 287.58 53.62, 300.51 62.38" stroke="#000000" stroke-width="1" fill="none"></path></g></g><mask id="mask-KNElNNuWPh8KqtHnc8tYT"><rect x="0" y="0" fill="#fff" width="779.0000000000002" height="621.785714285714"></rect><rect x="428.9299926757815" y="465.785714285714" fill="#000" width="200.1400146484375" height="50" opacity="1"></rect></mask><g transform="translate(428.9299926757815 465.785714285714) rotate(0 100.40514174796641 25.82022210821509)"><text x="100.07000732421875" y="0" font-family="Virgil, Segoe UI Emoji" font-size="20px" fill="#000000" text-anchor="middle" style="white-space: pre;" direction="ltr" dominant-baseline="text-before-edge">GET v3/orders-but-</text><text x="100.07000732421875" y="25" font-family="Virgil, Segoe UI Emoji" font-size="20px" fill="#000000" text-anchor="middle" style="white-space: pre;" direction="ltr" dominant-baseline="text-before-edge">not-that-much</text></g><g stroke-linecap="round" transform="translate(494.0000000000002 580.2142857142856) rotate(0 9.5 9.5)"><path d="M11.6 0.5 C13.51 0.75, 15.97 2, 17.11 3.45 C18.25 4.91, 18.71 7, 18.44 9.23 C18.16 11.45, 16.78 15.35, 15.45 16.81 C14.11 18.27, 12.11 17.9, 10.4 18 C8.68 18.09, 6.77 18.26, 5.15 17.4 C3.54 16.53, 1.3 14.78, 0.68 12.81 C0.07 10.83, 0.68 7.51, 1.47 5.55 C2.26 3.6, 3.48 1.9, 5.42 1.1 C7.36 0.3, 11.69 0.63, 13.11 0.74 C14.54 0.86, 13.98 1.6, 13.99 1.79 M8.04 -0.05 C9.91 -0.32, 12.76 0.56, 14.28 1.72 C15.8 2.88, 16.41 4.7, 17.18 6.9 C17.95 9.1, 19.33 12.89, 18.91 14.92 C18.5 16.95, 16.64 18.29, 14.69 19.06 C12.73 19.83, 9.53 20.43, 7.18 19.52 C4.84 18.62, 1.99 15.61, 0.62 13.63 C-0.75 11.64, -1.4 9.55, -1.05 7.61 C-0.69 5.66, 1.17 3.43, 2.75 1.96 C4.32 0.48, 7.26 -0.93, 8.4 -1.25 C9.53 -1.57, 9.73 -0.56, 9.55 0.01" stroke="#000000" stroke-width="1" fill="none"></path></g><g stroke-linecap="round" transform="translate(491.5000000000002 614.7142857142856) rotate(0 9.5 9.5)"><path d="M12.7 0.56 C14.6 1.01, 16.6 2.56, 17.68 4.37 C18.77 6.19, 19.48 9.42, 19.2 11.44 C18.93 13.46, 17.67 15.24, 16.04 16.48 C14.41 17.73, 11.58 18.86, 9.43 18.91 C7.28 18.97, 4.73 18.09, 3.12 16.83 C1.5 15.57, 0.23 13.33, -0.26 11.33 C-0.75 9.33, -0.96 6.44, 0.19 4.82 C1.34 3.19, 4.09 2.03, 6.62 1.58 C9.14 1.13, 13.75 1.78, 15.36 2.11 C16.96 2.44, 16.59 3.69, 16.25 3.57 M5.31 0.35 C7.04 -0.29, 9.33 0.93, 11.36 1.42 C13.38 1.9, 16.01 1.7, 17.46 3.27 C18.91 4.84, 20.45 8.84, 20.08 10.83 C19.7 12.82, 16.83 13.66, 15.22 15.21 C13.6 16.75, 12.25 20.03, 10.39 20.11 C8.52 20.19, 5.94 17.36, 4.03 15.71 C2.11 14.05, -0.74 11.99, -1.1 10.2 C-1.45 8.4, 0.88 6.59, 1.89 4.93 C2.9 3.26, 4.09 1.07, 4.96 0.22 C5.83 -0.64, 6.91 -0.25, 7.1 -0.18" stroke="#000000" stroke-width="1" fill="none"></path></g><g stroke-linecap="round" transform="translate(492.5000000000002 658.7142857142856) rotate(0 9.5 9.5)"><path d="M10.53 0.61 C12.59 0.85, 15.52 1.07, 16.89 2.67 C18.25 4.26, 18.87 8.05, 18.74 10.18 C18.6 12.31, 17.45 13.88, 16.07 15.42 C14.7 16.96, 12.44 19.14, 10.48 19.43 C8.53 19.72, 6.04 18.25, 4.36 17.16 C2.68 16.07, 1.14 14.79, 0.38 12.9 C-0.37 11.02, -0.83 7.72, -0.15 5.87 C0.52 4.03, 2.02 2.77, 4.46 1.83 C6.89 0.9, 12.68 0.05, 14.47 0.28 C16.25 0.51, 15.2 2.97, 15.15 3.21 M8.3 -0.26 C9.77 -0.76, 11.5 1.62, 12.92 2.42 C14.34 3.21, 16.02 2.65, 16.84 4.51 C17.67 6.38, 18.08 11.63, 17.88 13.59 C17.68 15.55, 17 15.5, 15.64 16.28 C14.29 17.06, 12.09 18.23, 9.76 18.27 C7.44 18.31, 3.24 17.71, 1.7 16.51 C0.17 15.32, 0.26 13.41, 0.54 11.11 C0.83 8.82, 2.15 4.61, 3.39 2.75 C4.63 0.89, 7.49 0.39, 8 -0.05 C8.51 -0.48, 6.31 -0.21, 6.48 0.14" stroke="#000000" stroke-width="1" fill="none"></path></g><g stroke-linecap="round" transform="translate(814.7500000000002 626.035714285714) rotate(0 9.5 9.5)"><path d="M10.11 -0.11 C12.11 -0.06, 14.51 1.58, 15.89 2.92 C17.28 4.27, 18.06 6.09, 18.42 7.98 C18.78 9.86, 19.09 12.39, 18.03 14.22 C16.97 16.05, 14.17 18.21, 12.07 18.96 C9.98 19.71, 7.25 19.4, 5.48 18.74 C3.71 18.08, 2.23 16.82, 1.44 15 C0.66 13.18, 0.58 10.03, 0.78 7.82 C0.97 5.6, 1.05 3.01, 2.61 1.71 C4.18 0.41, 8.72 0.23, 10.16 0.01 C11.6 -0.22, 11.08 0.31, 11.24 0.34 M9.69 -1.13 C11.7 -1.64, 13.89 -0.83, 15.43 0.28 C16.97 1.4, 18.32 3.39, 18.93 5.54 C19.54 7.69, 19.73 11.35, 19.06 13.17 C18.4 14.99, 16.96 15.64, 14.95 16.45 C12.94 17.25, 9.23 18.16, 6.99 18.01 C4.74 17.86, 2.42 17.01, 1.46 15.53 C0.5 14.06, 1.29 11.18, 1.22 9.13 C1.15 7.08, -0.31 4.68, 1.04 3.22 C2.38 1.76, 8.01 0.66, 9.3 0.35 C10.58 0.03, 9.08 1.34, 8.77 1.32" stroke="#000000" stroke-width="1" fill="none"></path></g><g stroke-linecap="round" transform="translate(812.2500000000002 660.535714285714) rotate(0 9.5 9.5)"><path d="M8 0.94 C9.69 0.5, 11.88 0.53, 13.65 1.39 C15.42 2.25, 17.93 4.15, 18.61 6.11 C19.29 8.06, 18.57 11.15, 17.73 13.12 C16.9 15.08, 15.16 16.83, 13.57 17.9 C11.98 18.97, 9.94 19.94, 8.18 19.56 C6.42 19.18, 4.49 17.38, 3.01 15.64 C1.52 13.9, -0.47 11.16, -0.71 9.13 C-0.94 7.11, 0.1 5.03, 1.6 3.49 C3.09 1.94, 6.77 0.56, 8.28 -0.13 C9.8 -0.81, 10.6 -0.83, 10.67 -0.62 M9.17 -1.15 C10.9 -1.49, 13.36 -0.9, 15.06 0.42 C16.77 1.74, 18.68 4.87, 19.39 6.76 C20.1 8.65, 20.33 10.01, 19.32 11.75 C18.32 13.49, 15.43 16.01, 13.35 17.22 C11.27 18.43, 8.55 19.35, 6.84 19.02 C5.14 18.7, 4.48 16.92, 3.1 15.27 C1.71 13.62, -1.54 11.13, -1.46 9.13 C-1.38 7.13, 1.87 4.6, 3.58 3.27 C5.3 1.93, 8.2 1.75, 8.83 1.12 C9.46 0.49, 7.5 -0.37, 7.38 -0.51" stroke="#000000" stroke-width="1" fill="none"></path></g><g stroke-linecap="round" transform="translate(813.2500000000002 704.535714285714) rotate(0 9.5 9.5)"><path d="M8.56 0.23 C10.47 -0.11, 13.89 0.67, 15.46 1.95 C17.03 3.23, 17.71 5.89, 17.99 7.91 C18.27 9.93, 17.89 12.24, 17.12 14.07 C16.35 15.91, 14.98 18.17, 13.35 18.91 C11.73 19.64, 9.48 19.27, 7.39 18.47 C5.3 17.67, 2.14 15.81, 0.83 14.12 C-0.47 12.42, -0.69 10.25, -0.43 8.3 C-0.16 6.35, 0.47 3.93, 2.41 2.42 C4.35 0.91, 9.63 -0.48, 11.23 -0.76 C12.83 -1.04, 12.16 0.28, 12.01 0.73 M6.13 -0.37 C7.86 -1.04, 10.99 -0.12, 13.06 0.41 C15.13 0.94, 17.64 1.24, 18.55 2.82 C19.45 4.39, 19.01 7.56, 18.5 9.88 C18 12.19, 16.72 15.18, 15.51 16.71 C14.29 18.24, 13.42 18.97, 11.22 19.06 C9.02 19.15, 3.98 18.45, 2.32 17.26 C0.66 16.07, 1.39 13.76, 1.25 11.93 C1.11 10.09, 0.9 8.25, 1.48 6.26 C2.06 4.27, 4.09 1.01, 4.75 0 C5.42 -1.01, 5.01 0.02, 5.46 0.21" stroke="#000000" stroke-width="1" fill="none"></path></g><g stroke-linecap="round" transform="translate(10 10.000000000000028) rotate(0 546.4285714285714 401.42857142857144)"><path d="M32 0 M32 0 C283 -2.44, 532.93 -2.78, 1060.86 0 M32 0 C357.09 1.71, 682.53 1.8, 1060.86 0 M1060.86 0 C1080.26 0.5, 1092.11 9.47, 1092.86 32 M1060.86 0 C1081.33 0.58, 1092.74 11.26, 1092.86 32 M1092.86 32 C1092.22 259.09, 1091.45 486.25, 1092.86 770.86 M1092.86 32 C1094.73 223.62, 1094.21 415.13, 1092.86 770.86 M1092.86 770.86 C1093.48 792.76, 1082.37 803.74, 1060.86 802.86 M1092.86 770.86 C1093.65 793.05, 1081.73 803.18, 1060.86 802.86 M1060.86 802.86 C786.93 803.6, 512.01 803.52, 32 802.86 M1060.86 802.86 C826.44 804.89, 592.66 805.27, 32 802.86 M32 802.86 C10.48 802.03, 1.97 794.02, 0 770.86 M32 802.86 C9.32 803.83, -0.67 792.9, 0 770.86 M0 770.86 C1.18 565.33, 0.32 360.88, 0 32 M0 770.86 C-0.68 485.41, -0.46 200.11, 0 32 M0 32 C-0.79 11.97, 9.3 0.27, 32 0 M0 32 C-0.61 11.53, 10.94 0.55, 32 0" stroke="transparent" stroke-width="1" fill="none"></path></g></svg>